<svg xmlns="http://www.w3.org/2000/svg" xmlns:xlink="http://www.w3.org/1999/xlink" version="1.2" width="100mm" height="100mm" viewBox="0 0 100 100" stroke="none" fill="#000000" stroke-width="0.3" font-size="3.88">
<defs>
  <marker id="arrow" markerWidth="15" markerHeight="7" refX="5" refY="3.5" orient="auto" markerUnits="strokeWidth">
    <path d="M0,0 L15,3.5 L0,7 z" stroke="context-stroke" fill="context-stroke"></path>
  </marker>
</defs>
<g fill="#000000" fill-opacity="0.000" id="img-8cd4c20c-1">
  <g transform="translate(50,50)">
    <path d="M-50,-50 L50,-50 50,50 -50,50  z" class="primitive"></path>
  </g>
</g>
<g stroke-width="0.95" stroke="#D3D3D3" id="img-8cd4c20c-2">
</g>
<g stroke-width="0.95" stroke="#D3D3D3" id="img-8cd4c20c-3">
  <g transform="translate(37.81,37.89)">
    <path fill="none" d="M3.21,-4.36 L-3.21,4.36 " class="primitive"></path>
  </g>
  <g transform="translate(33.55,23.23)">
    <path fill="none" d="M-3.82,-3.1 L3.82,3.1 " class="primitive"></path>
  </g>
  <g transform="translate(18.33,12.1)">
    <path fill="none" d="M-2.86,-1.92 L2.86,1.92 " class="primitive"></path>
  </g>
  <g transform="translate(58.38,26.91)">
    <path fill="none" d="M8.43,-2.17 L-8.43,2.17 " class="primitive"></path>
  </g>
  <g transform="translate(21.29,48.38)">
    <path fill="none" d="M5.75,-0.2 L-5.75,0.2 " class="primitive"></path>
  </g>
  <g transform="translate(29.06,54.5)">
    <path fill="none" d="M0.63,-3.21 L-0.63,3.21 " class="primitive"></path>
  </g>
  <g transform="translate(25.11,70.43)">
    <path fill="none" d="M0.86,-2.53 L-0.86,2.53 " class="primitive"></path>
  </g>
  <g transform="translate(18.83,87.54)">
    <path fill="none" d="M-0.42,1.06 L0.42,-1.06 " class="primitive"></path>
  </g>
  <g transform="translate(82.72,20.42)">
    <path fill="none" d="M5.77,-1.59 L-5.77,1.59 " class="primitive"></path>
  </g>
</g>
<g fill="#D3D3D3" id="img-8cd4c20c-4">
</g>
<g fill="#D3D3D3" id="img-8cd4c20c-5">
  <g transform="translate(33.83,43.31)">
    <path d="M1.92,-0.21 L-1.55,2.1 -0.38,-1.9  z" class="primitive"></path>
  </g>
  <g transform="translate(38.38,27.15)">
    <path d="M-0.11,-1.93 L2.03,1.65 -1.91,0.28  z" class="primitive"></path>
  </g>
  <g transform="translate(22.27,14.75)">
    <path d="M-0.29,-1.91 L2.17,1.46 -1.88,0.45  z" class="primitive"></path>
  </g>
  <g transform="translate(48.68,29.41)">
    <path d="M1.62,1.05 L-2.53,0.65 0.91,-1.71  z" class="primitive"></path>
  </g>
  <g transform="translate(14.23,48.63)">
    <path d="M1.35,1.38 L-2.61,0.09 1.25,-1.47  z" class="primitive"></path>
  </g>
  <g transform="translate(28.18,58.99)">
    <path d="M1.65,-1 L-0.51,2.56 -1.15,-1.56  z" class="primitive"></path>
  </g>
  <g transform="translate(23.83,74.19)">
    <path d="M1.77,-0.78 L-0.84,2.47 -0.93,-1.69  z" class="primitive"></path>
  </g>
  <g transform="translate(19.74,85.27)">
    <path d="M-1.81,0.68 L0.97,-2.42 0.84,1.74  z" class="primitive"></path>
  </g>
  <g transform="translate(75.69,22.35)">
    <path d="M1.64,1.03 L-2.52,0.69 0.88,-1.72  z" class="primitive"></path>
  </g>
</g>
<g font-size="4" fill="#000000" id="img-8cd4c20c-6">
</g>
<g stroke-width="0" stroke="#000000" stroke-opacity="0.000" id="img-8cd4c20c-7">
  <g transform="translate(42.96,30.88)" fill="#FFFFFF">
    <circle cx="0" cy="0" r="3.16" class="primitive"></circle>
  </g>
  <g transform="translate(27.17,18.05)" fill="#ADD8E6">
    <circle cx="0" cy="0" r="3.16" class="primitive"></circle>
  </g>
  <g transform="translate(12.74,8.33)" fill="#FFFFFF">
    <circle cx="0" cy="0" r="3.16" class="primitive"></circle>
  </g>
  <g transform="translate(70,23.92)" fill="#FFFFFF">
    <circle cx="0" cy="0" r="3.16" class="primitive"></circle>
  </g>
  <g transform="translate(30.33,48.07)" fill="#ADD8E6">
    <circle cx="0" cy="0" r="3.16" class="primitive"></circle>
  </g>
  <g transform="translate(8.33,48.84)" fill="#FFFFFF">
    <circle cx="0" cy="0" r="3.16" class="primitive"></circle>
  </g>
  <g transform="translate(27.03,64.78)" fill="#ADD8E6">
    <circle cx="0" cy="0" r="3.16" class="primitive"></circle>
  </g>
  <g transform="translate(21.93,79.78)" fill="#808080">
    <circle cx="0" cy="0" r="3.16" class="primitive"></circle>
  </g>
  <g transform="translate(17.19,91.67)" fill="#FFFFFF">
    <circle cx="0" cy="0" r="3.16" class="primitive"></circle>
  </g>
  <g transform="translate(91.67,17.95)" fill="#FFFFFF">
    <circle cx="0" cy="0" r="3.16" class="primitive"></circle>
  </g>
</g>
<g font-family="Helvetica" font-size="4" fill="#000000" id="img-8cd4c20c-8">
  <g transform="translate(42.96,30.88)">
    <g class="primitive">
      <text text-anchor="middle" dy="0.35em">a</text>
    </g>
  </g>
  <g transform="translate(27.17,18.05)">
    <g class="primitive">
      <text text-anchor="middle" dy="0.35em">f</text>
    </g>
  </g>
  <g transform="translate(12.74,8.33)">
    <g class="primitive">
      <text text-anchor="middle" dy="0.35em">b</text>
    </g>
  </g>
  <g transform="translate(70,23.92)">
    <g class="primitive">
      <text text-anchor="middle" dy="0.35em">c</text>
    </g>
  </g>
  <g transform="translate(30.33,48.07)">
    <g class="primitive">
      <text text-anchor="middle" dy="0.35em">g</text>
    </g>
  </g>
  <g transform="translate(8.33,48.84)">
    <g class="primitive">
      <text text-anchor="middle" dy="0.35em">d</text>
    </g>
  </g>
  <g transform="translate(27.03,64.78)">
    <g class="primitive">
      <text text-anchor="middle" dy="0.35em">h</text>
    </g>
  </g>
  <g transform="translate(21.93,79.78)">
    <g class="primitive">
      <text text-anchor="middle" dy="0.35em">e</text>
    </g>
  </g>
  <g transform="translate(17.19,91.67)">
    <g class="primitive">
      <text text-anchor="middle" dy="0.35em">i</text>
    </g>
  </g>
  <g transform="translate(91.67,17.95)">
    <g class="primitive">
      <text text-anchor="middle" dy="0.35em">l</text>
    </g>
  </g>
</g>
<g font-family="Helvetica" font-size="4" fill="#000000" id="img-8cd4c20c-9">
  <g transform="translate(50,0)">
    <g class="primitive">
      <text text-anchor="middle" dy="0.35em"></text>
    </g>
  </g>
</g>
</svg>