<svg xmlns="http://www.w3.org/2000/svg" xmlns:xlink="http://www.w3.org/1999/xlink" version="1.2" width="141.42mm" height="100mm" viewBox="0 0 141.42 100" stroke="none" fill="#000000" stroke-width="0.3" font-size="3.88">
<defs>
  <marker id="arrow" markerWidth="15" markerHeight="7" refX="5" refY="3.5" orient="auto" markerUnits="strokeWidth">
    <path d="M0,0 L15,3.5 L0,7 z" stroke="context-stroke" fill="context-stroke"></path>
  </marker>
</defs>
<g stroke-width="0.95" fill="#000000" fill-opacity="0.000" stroke="#D3D3D3" id="img-e782e788-1">
  <g transform="translate(73.27,79.05)">
    <path fill="none" d="M0.71,-7.72 L-0.71,7.72 " class="primitive"></path>
  </g>
  <g transform="translate(62.41,67.56)">
    <path fill="none" d="M7.22,0.29 L-7.22,-0.29 " class="primitive"></path>
  </g>
  <g transform="translate(111.38,19.56)">
    <path fill="none" d="M2.42,-8 L-2.42,8 " class="primitive"></path>
  </g>
  <g transform="translate(107.65,66.67)">
    <path fill="none" d="M6.04,6.07 L-6.04,-6.07 " class="primitive"></path>
  </g>
  <g transform="translate(123,83.55)">
    <path fill="none" d="M4.3,5.26 L-4.3,-5.26 " class="primitive"></path>
  </g>
  <g transform="translate(86.6,62.98)">
    <path fill="none" d="M8.3,-3.41 L-8.3,3.41 " class="primitive"></path>
  </g>
  <g transform="translate(103.46,44.35)">
    <path fill="none" d="M3.46,-10.36 L-3.46,10.36 " class="primitive"></path>
  </g>
  <g transform="translate(39.75,67.24)">
    <path fill="none" d="M6.12,-0.09 L-6.12,0.09 " class="primitive"></path>
  </g>
  <g transform="translate(20.38,67.64)">
    <path fill="none" d="M-3.94,0.11 L3.94,-0.11 " class="primitive"></path>
  </g>
</g>
<g stroke-width="0.95" stroke="#D3D3D3" id="img-e782e788-2">
  <g transform="translate(72.8,84.17)">
    <path fill="none" d="M2.13,-1.21 L-0.24,2.6 -1.89,-1.39 " class="primitive"></path>
  </g>
  <g transform="translate(58.87,67.42)">
    <path fill="none" d="M1.73,1.5 L-3.69,-0.15 1.96,-1.35 " class="primitive"></path>
  </g>
  <g transform="translate(109.73,25)">
    <path fill="none" d="M2.36,-0.98 L-0.77,2.55 -1.59,-1.57 " class="primitive"></path>
  </g>
  <g transform="translate(103.74,62.74)">
    <path fill="none" d="M-0.59,1.89 L-2.12,-2.13 2.71,0.25 " class="primitive"></path>
  </g>
  <g transform="translate(120.55,80.55)">
    <path fill="none" d="M-0.82,1.84 L-1.85,-2.26 2.67,0.42 " class="primitive"></path>
  </g>
  <g transform="translate(81.5,65.08)">
    <path fill="none" d="M2.61,0.58 L-3.19,1.31 0.58,-1.89 " class="primitive"></path>
  </g>
  <g transform="translate(100.85,52.17)">
    <path fill="none" d="M2.39,-0.94 L-0.85,2.54 -1.54,-1.6 " class="primitive"></path>
  </g>
  <g transform="translate(37.33,67.27)">
    <path fill="none" d="M1.89,1.4 L-3.69,0.05 1.8,-1.45 " class="primitive"></path>
  </g>
  <g transform="translate(20.63,67.63)">
    <path fill="none" d="M-1.93,-1.37 L3.69,-0.11 -1.76,1.48 " class="primitive"></path>
  </g>
</g>
<g font-size="4" stroke="#000000" stroke-opacity="0.000" fill="#000000" id="img-e782e788-3">
</g>
<g stroke-width="0" stroke="#000000" stroke-opacity="0.000" id="img-e782e788-4">
  <g transform="translate(72.26,90.06)" fill="#008000">
    <circle cx="0" cy="0" r="4.47" class="primitive"></circle>
  </g>
  <g transform="translate(74.28,68.04)" fill="#FF0000">
    <circle cx="0" cy="0" r="4.47" class="primitive"></circle>
  </g>
  <g transform="translate(114.76,8.33)" fill="#008000">
    <circle cx="0" cy="0" r="4.47" class="primitive"></circle>
  </g>
  <g transform="translate(116.37,75.44)" fill="#FF0000">
    <circle cx="0" cy="0" r="4.47" class="primitive"></circle>
  </g>
  <g transform="translate(129.64,91.67)" fill="#008000">
    <circle cx="0" cy="0" r="4.47" class="primitive"></circle>
  </g>
  <g transform="translate(98.93,57.91)" fill="#008000">
    <circle cx="0" cy="0" r="4.47" class="primitive"></circle>
  </g>
  <g transform="translate(107.99,30.78)" fill="#008000">
    <circle cx="0" cy="0" r="4.47" class="primitive"></circle>
  </g>
  <g transform="translate(50.53,67.09)" fill="#FF0000">
    <circle cx="0" cy="0" r="4.47" class="primitive"></circle>
  </g>
  <g transform="translate(28.98,67.39)" fill="#008000">
    <circle cx="0" cy="0" r="4.47" class="primitive"></circle>
  </g>
  <g transform="translate(11.79,67.89)" fill="#008000">
    <circle cx="0" cy="0" r="4.47" class="primitive"></circle>
  </g>
</g>
<g font-size="4" stroke="#000000" stroke-opacity="0.000" fill="#000000" id="img-e782e788-5">
  <g transform="translate(72.26,90.06)">
    <g class="primitive">
      <text text-anchor="middle" dy="0.35em">d</text>
    </g>
  </g>
  <g transform="translate(74.28,68.04)">
    <g class="primitive">
      <text text-anchor="middle" dy="0.35em">g</text>
    </g>
  </g>
  <g transform="translate(114.76,8.33)">
    <g class="primitive">
      <text text-anchor="middle" dy="0.35em">l</text>
    </g>
  </g>
  <g transform="translate(116.37,75.44)">
    <g class="primitive">
      <text text-anchor="middle" dy="0.35em">f</text>
    </g>
  </g>
  <g transform="translate(129.64,91.67)">
    <g class="primitive">
      <text text-anchor="middle" dy="0.35em">b</text>
    </g>
  </g>
  <g transform="translate(98.93,57.91)">
    <g class="primitive">
      <text text-anchor="middle" dy="0.35em">a</text>
    </g>
  </g>
  <g transform="translate(107.99,30.78)">
    <g class="primitive">
      <text text-anchor="middle" dy="0.35em">c</text>
    </g>
  </g>
  <g transform="translate(50.53,67.09)">
    <g class="primitive">
      <text text-anchor="middle" dy="0.35em">h</text>
    </g>
  </g>
  <g transform="translate(28.98,67.39)">
    <g class="primitive">
      <text text-anchor="middle" dy="0.35em">e</text>
    </g>
  </g>
  <g transform="translate(11.79,67.89)">
    <g class="primitive">
      <text text-anchor="middle" dy="0.35em">i</text>
    </g>
  </g>
</g>
</svg>